<svg width="105" height="109" viewBox="0 0 105 109" fill="none" xmlns="http://www.w3.org/2000/svg">
<path d="M51.2598 0V11.4619H25.6299V14.168H51.2598V40.1162L38.5244 51.2598H0V22.1279H25.6299V18.9434H0V0H51.2598Z" fill="#FFFB00"/>
<path d="M105.001 0V11.4619H79.3708V14.168H105.001V40.1162L92.2654 51.2598H53.741V22.1279H79.3708V18.9434H53.741V0H105.001Z" fill="#FFFB00"/>
<path d="M45.8467 65.458V96.4209H51.2598V108.52H0V96.4209H5.41211V68.7217H0V57.2598H38.5244L45.8467 65.458Z" fill="#FFFB00"/>
<path d="M105.001 74.7705L99.5876 80.8203V84.959L105.001 91.0088V108.52H53.741V91.0088L59.1531 84.959V80.8203L53.741 74.7705V57.2598H105.001V74.7705ZM78.575 96.4209H81.281V87.8242H78.575V96.4209ZM78.575 77.9541H81.281V68.7217H78.575V77.9541Z" fill="#FFFB00"/>
</svg>
