<svg width="1767" height="424" viewBox="0 0 1767 424" fill="none" xmlns="http://www.w3.org/2000/svg">
<path d="M423.309 0V94.6523H211.654V117.001H423.309V331.285L318.139 423.309H0V182.732H211.654V156.44H0V0H423.309Z" fill="white"/>
<path d="M871.206 0V94.6523H659.552V117.001H871.206V331.285L766.036 423.309H447.897V182.732H659.552V156.44H447.897V0H871.206Z" fill="white"/>
<path d="M1274.41 67.7031L1274.41 211.654V323.396H1319.1V423.308H895.795V323.396H940.492V94.6523H895.795V0H1213.93L1274.41 67.7031Z" fill="white"/>
<path d="M1767 144.608L1722.3 194.563V228.744L1767 278.699V423.309H1343.69V278.699L1388.39 228.744V194.563L1343.69 144.608V0H1767V144.608ZM1548.77 323.396H1571.12V252.407H1548.77V323.396ZM1548.77 170.9H1571.12V94.6523H1548.77V170.9Z" fill="white"/>
</svg>
