<svg width="113" height="95" viewBox="0 0 113 95" fill="none" xmlns="http://www.w3.org/2000/svg">
<path d="M8.16277 94.0374H84.1533C99.8746 94.0374 112.622 81.2904 112.622 65.569C112.622 51.6814 101.373 40.4326 87.4854 40.4326H87.1052C84.936 40.4326 82.8562 41.3719 81.4473 43.0268L52.4197 76.4822C51.3239 77.7346 49.2889 76.6835 49.6914 75.0734L54.835 54.3873C55.0586 53.4928 54.2535 52.6877 53.359 52.889L26.9256 59.2849C22.2293 60.4254 18.0026 62.9301 14.7599 66.5082L2.14705 80.4182C-2.61633 85.6512 1.11834 94.0598 8.18514 94.0598L8.16277 94.0374Z" fill="#00FFFF"/>
<path d="M104.459 0H28.4685C12.7471 0 0 12.7471 0 28.4685C0 42.3561 11.2487 53.6048 25.1363 53.6048H25.5165C27.6858 53.6048 29.7655 52.6656 31.1744 51.0107L60.202 17.5552C61.2978 16.3028 63.3328 17.3539 62.9303 18.9641L57.7868 39.6501C57.5631 40.5447 58.3682 41.3497 59.2627 41.1485L85.6961 34.7526C90.3924 33.612 94.6191 31.1073 97.8618 27.5292L110.475 13.6192C115.26 8.38624 111.548 0 104.459 0Z" fill="#00FFFF"/>
</svg>
